<svg version="1.1" id="Layer_1" xmlns="http://www.w3.org/2000/svg" xmlns:xlink="http://www.w3.org/1999/xlink" x="0px" y="0px"
	 width="100%" viewBox="0 0 432 422" enable-background="new 0 0 432 422" xml:space="preserve">
<path fill="#4A5FA7" opacity="1.000000" stroke="none" 
	d="
M1.000000,217.000000 
	C1.000000,145.036545 1.000000,73.073082 1.000000,1.054814 
	C144.890350,1.054814 288.780731,1.054814 433.000000,1.054814 
	C433.000000,72.020554 433.000000,143.041626 432.536072,214.603302 
	C406.527283,215.143921 380.982452,215.143921 355.279999,215.143921 
	C355.279999,221.888702 355.279999,227.888962 355.279999,234.000000 
	C381.509949,234.000000 407.254974,234.000000 433.000000,234.000000 
	C433.000000,296.965820 433.000000,359.931610 433.000000,422.948730 
	C289.112335,422.948730 145.224655,422.948730 1.000000,422.948730 
	C1.000000,361.312836 1.000000,299.625092 1.425683,237.253662 
	C26.104868,236.569992 50.358372,236.569992 74.908928,236.569992 
	C74.908928,229.858261 74.908928,223.946747 74.908928,217.282822 
	C72.554222,217.282822 70.446220,217.290359 68.338295,217.281693 
	C45.892189,217.189255 23.446096,217.094284 1.000000,217.000000 
M320.381561,372.077942 
	C320.587982,374.057587 320.880035,376.032623 320.986786,378.017639 
	C321.631866,390.013947 321.617706,390.014771 333.500671,390.006348 
	C334.666687,390.005524 335.838959,389.924072 336.997498,390.016205 
	C340.275635,390.276886 341.823944,388.913055 342.168060,385.532959 
	C343.095062,376.427673 344.282654,367.349091 345.345398,358.257416 
	C347.118134,343.091888 348.914154,327.928894 350.621918,312.756012 
	C351.599579,304.069580 352.422363,295.365723 353.309448,286.722778 
	C341.892792,284.459351 340.194580,285.587128 338.621796,296.168823 
	C338.303925,298.307434 338.089172,300.462830 337.876892,302.615448 
	C336.639374,315.164490 335.390411,327.712494 334.198334,340.265900 
	C333.403015,348.641266 332.695831,357.025024 331.949219,365.405029 
	C330.632019,363.374695 330.218567,361.312805 330.017303,359.230438 
	C327.809357,336.382355 325.623077,313.532166 323.462524,290.679565 
	C323.123840,287.097504 322.007690,284.564728 317.675629,284.982239 
	C313.906219,285.345459 310.198029,284.734039 309.721191,290.580627 
	C307.813232,313.975800 305.483398,337.336548 303.301422,360.709290 
	C303.162994,362.192017 302.954559,363.668182 302.778717,365.147369 
	C301.415039,360.818329 300.960419,356.548492 300.480377,352.281525 
	C298.341431,333.268524 296.005188,314.275085 294.131866,295.235992 
	C293.198212,285.747162 293.115051,285.365631 283.835846,285.960938 
	C280.647736,286.165436 279.294067,287.369049 279.775421,290.645111 
	C280.596985,296.236420 281.307068,301.845276 281.986542,307.456146 
	C284.804718,330.727997 287.412109,354.027313 290.468048,377.267700 
	C292.075409,389.491669 292.418854,389.289795 304.658936,389.108673 
	C309.070679,389.043365 311.058716,387.291168 311.413544,383.042023 
	C312.286163,372.592407 313.179321,362.143097 314.229828,351.710358 
	C314.759979,346.445129 315.649872,341.216156 316.377136,335.970825 
	C316.784119,336.000610 317.191071,336.030426 317.598053,336.060242 
	C318.478119,347.760376 319.358215,359.460510 320.381561,372.077942 
M132.388840,106.122444 
	C136.263565,97.143799 139.027283,87.446014 144.267059,79.350952 
	C152.635834,66.421806 148.083267,54.020065 146.325394,40.534317 
	C92.829597,83.245514 95.297707,177.062210 146.006836,216.115845 
	C148.258713,206.857010 149.896515,197.726196 148.439270,188.387573 
	C147.967773,185.366074 146.786972,182.220184 145.121536,179.656860 
	C130.535065,157.206421 126.698341,132.919098 132.388840,106.122444 
M299.542603,132.062592 
	C298.898987,149.461853 293.333771,165.146484 284.187195,179.950180 
	C277.013214,191.561264 281.312439,203.867538 283.366302,216.504181 
	C338.072571,171.915909 332.371857,77.534546 283.005066,40.778316 
	C282.013947,47.909740 280.829529,54.566826 280.230621,61.276184 
	C279.654541,67.729973 281.387451,73.533150 285.193207,79.100060 
	C295.882141,94.735458 299.916290,112.394989 299.542603,132.062592 
M226.782974,322.500061 
	C226.762924,311.908234 226.652954,301.315521 226.757858,290.724915 
	C226.817154,284.738403 223.014313,285.003876 218.727707,284.891632 
	C214.071152,284.769684 213.679001,287.237457 213.730164,290.860229 
	C213.965164,307.501587 214.064560,324.144897 214.206390,340.787567 
	C214.225494,343.028351 214.209045,345.269470 214.209045,347.510437 
	C212.964096,346.769989 212.579010,345.911835 212.345261,345.014221 
	C208.236755,329.238739 203.913849,313.514130 200.121323,297.662720 
	C196.660706,283.198669 198.552719,286.520050 185.014648,285.928955 
	C180.524872,285.732910 179.194351,287.517029 179.341660,291.764801 
	C179.854813,306.561676 180.177536,321.365631 180.501602,336.168427 
	C180.840530,351.650635 180.985062,367.138062 181.452515,382.615997 
	C181.611465,387.879242 182.969040,388.500000 189.085022,388.316132 
	C193.383575,388.186951 194.997482,386.073242 194.847534,381.993896 
	C194.224167,365.035919 193.606018,348.077393 193.095520,331.115814 
	C192.921082,325.320404 193.067841,319.515350 193.067841,313.714691 
	C199.629501,335.522369 205.395737,357.355438 210.923203,379.248749 
	C213.129868,387.988983 212.894333,387.835999 221.996857,388.022217 
	C226.693558,388.118347 228.047195,386.335541 227.926437,381.840332 
	C227.404037,362.394623 227.139816,342.941925 226.782974,322.500061 
M76.122108,322.499847 
	C76.111946,311.882477 75.954308,301.262421 76.150688,290.648865 
	C76.256973,284.904816 72.837662,284.994781 68.640633,284.890869 
	C64.056244,284.777405 62.964989,286.788757 63.056114,290.918488 
	C63.445431,308.561218 63.641209,326.208282 63.882679,343.854095 
	C63.903111,345.346893 63.739235,346.842194 63.660980,348.336334 
	C62.597790,347.248322 62.201729,346.184387 61.916912,345.091461 
	C57.803387,329.306366 53.604240,313.542633 49.632671,297.721802 
	C46.097935,283.641052 48.915436,286.385742 34.032486,285.939758 
	C30.009012,285.819183 28.789425,287.420135 28.924805,291.238068 
	C29.390772,304.378937 29.701792,317.525940 29.983976,330.672485 
	C30.348558,347.657837 30.602375,364.645538 30.959084,381.631073 
	C31.086346,387.690979 32.048645,388.512970 38.125645,388.285187 
	C43.409340,388.087097 44.279408,386.947876 44.108185,380.894958 
	C43.533840,360.591919 42.997131,340.287842 42.456051,319.983887 
	C42.414261,318.415680 42.450554,316.845398 42.450554,315.276062 
	C43.756466,315.685028 44.002068,316.217102 44.148300,316.775238 
	C49.670834,337.853485 55.263309,358.913910 60.657986,380.024872 
	C62.676109,387.922394 62.464703,387.976379 70.825905,387.932281 
	C77.030769,387.899567 77.311455,387.560791 77.191223,381.442291 
	C76.811722,362.128662 76.474892,342.814148 76.122108,322.499847 
M130.379150,365.041870 
	C129.394821,363.465424 128.681366,360.813507 127.382401,360.486298 
	C118.664864,358.290680 116.781288,359.834930 116.467842,368.554291 
	C116.456078,368.881317 116.633949,369.230225 116.571404,369.538086 
	C115.780930,373.428955 114.093094,376.421875 109.545319,376.627686 
	C104.910210,376.837463 102.169685,374.648834 101.805183,370.075867 
	C101.460938,365.756927 101.470673,361.401520 101.493683,357.063049 
	C101.583565,340.116577 101.651138,323.169037 101.922623,306.225006 
	C102.013260,300.567719 104.549568,297.980408 109.114075,297.952087 
	C113.886398,297.922485 116.503944,300.783691 116.856781,306.415619 
	C117.274818,313.088226 117.274841,313.090515 123.818474,313.052856 
	C125.150078,313.045197 126.624947,313.364441 127.773422,312.895416 
	C128.961258,312.410339 130.597321,311.242920 130.723602,310.212921 
	C132.024017,299.604980 126.791931,288.676666 117.269234,286.103302 
	C102.357864,282.073761 88.045929,288.354858 87.756577,306.654327 
	C87.544510,320.065094 87.911880,333.484558 87.977585,346.900360 
	C88.016365,354.817139 87.625221,362.752258 88.035728,370.647522 
	C88.850281,386.313721 101.526169,391.147888 112.500397,389.825470 
	C124.214966,388.413818 131.731491,378.181244 130.379150,365.041870 
M388.762115,366.018982 
	C388.808960,367.016388 388.934357,368.017365 388.889557,369.010651 
	C388.648041,374.363525 386.384827,376.875122 381.879089,376.858429 
	C377.153107,376.840912 374.404663,374.134216 373.983124,369.014709 
	C373.873962,367.688751 373.892822,366.350555 373.889648,365.017883 
	C373.882019,361.806702 372.488647,359.981384 369.078339,360.058289 
	C367.246429,360.099609 365.411072,360.110748 363.580231,360.048584 
	C360.345917,359.938751 358.718597,361.700470 359.210571,364.661713 
	C360.048309,369.704285 360.567657,375.036621 362.663300,379.582184 
	C366.578400,388.074310 374.498871,389.910828 383.182068,390.012756 
	C392.167877,390.118225 397.115417,384.230560 400.408112,377.503326 
	C403.170044,371.860535 403.244476,365.041199 400.495209,358.990662 
	C397.475647,352.345245 394.164612,345.791870 390.446655,339.514618 
	C385.952911,331.927582 380.401550,324.935333 376.292999,317.164795 
	C374.182892,313.173920 373.351593,308.018066 373.523773,303.448303 
	C373.692230,298.978058 377.635681,297.359039 382.042297,297.974518 
	C386.136444,298.546387 388.035675,301.007660 388.264984,305.103607 
	C388.662750,312.207275 388.734589,312.196930 395.982971,311.961365 
	C396.976746,311.929077 398.140839,312.331238 398.929413,311.937683 
	C400.067230,311.369965 401.569214,310.406616 401.814728,309.355011 
	C403.690002,301.322388 399.136047,291.326752 392.060944,287.388062 
	C384.587341,283.227539 372.482391,284.311737 366.667847,289.740509 
	C359.022614,296.878510 357.918579,305.902008 361.254150,314.983795 
	C363.972961,322.386261 368.458344,329.153931 372.297760,336.127411 
	C377.658234,345.863586 383.146667,355.529266 388.762115,366.018982 
M244.718445,285.997070 
	C240.246948,285.376099 238.202515,287.228088 238.585556,291.812714 
	C238.765106,293.961853 238.583939,296.138489 238.647888,298.300262 
	C239.045822,311.754089 239.680725,325.205017 239.823410,338.661255 
	C239.983612,353.770416 239.766373,368.884949 239.580017,383.995514 
	C239.527893,388.223450 241.994446,389.066895 245.363937,388.954498 
	C253.681473,388.677002 261.994690,388.169464 270.313416,388.070312 
	C274.687500,388.018188 276.162720,386.281891 275.898041,381.971710 
	C275.657288,378.051025 275.913910,374.568237 270.257019,374.923737 
	C264.862305,375.262726 259.429504,374.996826 253.548859,374.996826 
	C253.548859,363.269836 253.548859,352.392914 253.548859,341.168732 
	C257.728729,341.168732 261.558746,340.951904 265.353760,341.223572 
	C270.114136,341.564331 270.350494,338.728760 270.264557,335.213562 
	C270.176727,331.619324 270.630554,327.879639 265.241028,327.994171 
	C261.359863,328.076721 257.475525,328.010254 253.354340,328.010254 
	C253.354340,318.541809 253.354340,308.984619 253.354340,299.004425 
	C258.895294,299.004425 264.070740,298.603546 269.158203,299.101776 
	C276.160339,299.787506 274.134277,294.674103 274.616058,291.270782 
	C275.218658,287.014160 272.392975,286.346588 268.993164,286.322723 
	C261.212402,286.268127 253.432358,286.111420 244.718445,285.997070 
M164.532822,78.046455 
	C129.848679,115.686310 147.418854,170.879150 171.599976,184.430130 
	C174.887070,171.083694 174.033951,168.209076 167.667587,156.068039 
	C157.638107,136.941132 157.492325,117.407280 169.169922,99.046097 
	C174.901520,90.034081 173.900604,81.709579 171.332123,71.763718 
	C168.851532,74.018562 166.927628,75.767380 164.532822,78.046455 
M279.554779,156.004990 
	C292.207153,121.667534 278.376678,85.921051 257.903992,72.323318 
	C256.431122,80.448418 253.627655,88.294418 258.702209,96.100006 
	C272.432007,117.218849 272.600861,138.626587 259.405457,159.966278 
	C254.279648,168.255814 256.085846,176.378357 258.095093,185.006287 
	C266.581116,179.428253 274.049500,169.305939 279.554779,156.004990 
M190.646408,107.860344 
	C192.965240,103.354683 191.778687,99.056244 190.095490,94.015823 
	C176.992126,104.388687 170.997772,117.172958 172.652298,133.178589 
	C173.935135,145.588593 179.783646,155.422028 190.408813,163.094803 
	C191.943329,156.848312 192.615433,151.910919 189.044128,146.918015 
	C180.423965,134.866562 181.023453,120.507736 190.646408,107.860344 
M241.240280,95.442238 
	C240.337585,95.771072 238.760422,95.939148 238.637726,96.453903 
	C237.545288,101.036957 237.115494,105.432556 240.218353,109.762955 
	C248.552597,121.394287 248.770111,134.894470 240.724655,146.569565 
	C237.093109,151.839447 237.388779,156.966843 239.268753,162.590775 
	C259.645660,150.247498 265.382782,115.305191 241.240280,95.442238 
M229.495377,126.106277 
	C227.403976,118.587257 223.240860,114.532814 216.759857,113.862732 
	C210.388870,113.204025 205.267853,115.392349 201.919098,120.974846 
	C198.634262,126.450768 199.319427,133.451584 203.408981,138.236633 
	C207.329880,142.824310 214.197800,144.674026 219.788345,142.648056 
	C226.169449,140.335602 229.639481,134.780487 229.495377,126.106277 
M147.640823,339.999146 
	C152.280807,340.000702 156.920776,340.005554 161.560760,340.003204 
	C170.214584,339.998810 170.124786,339.966827 170.105484,331.520844 
	C170.097794,328.152222 169.006607,326.689453 165.505188,326.772034 
	C158.870468,326.928436 152.214722,327.085114 145.594330,326.736267 
	C136.924179,326.279419 136.054489,328.055634 138.184250,336.619843 
	C139.496185,341.895386 143.729782,339.204437 147.640823,339.999146 
z"/>
<path fill="#F4AE85" opacity="1.000000" stroke="none" 
	d="
M433.000000,233.531723 
	C407.254974,234.000000 381.509949,234.000000 355.279999,234.000000 
	C355.279999,227.888962 355.279999,221.888702 355.279999,215.143921 
	C380.982452,215.143921 406.527283,215.143921 432.536072,215.071960 
	C433.000000,221.021149 433.000000,227.042297 433.000000,233.531723 
z"/>
<path fill="#F3AD86" opacity="1.000000" stroke="none" 
	d="
M1.000000,217.468414 
	C23.446096,217.094284 45.892189,217.189255 68.338295,217.281693 
	C70.446220,217.290359 72.554222,217.282822 74.908928,217.282822 
	C74.908928,223.946747 74.908928,229.858261 74.908928,236.569992 
	C50.358372,236.569992 26.104868,236.569992 1.425683,236.785004 
	C1.000000,230.645599 1.000000,224.291214 1.000000,217.468414 
z"/>
<path fill="#F3AD85" opacity="1.000000" stroke="none" 
	d="
M320.309937,371.619293 
	C319.358215,359.460510 318.478119,347.760376 317.598053,336.060242 
	C317.191071,336.030426 316.784119,336.000610 316.377136,335.970825 
	C315.649872,341.216156 314.759979,346.445129 314.229828,351.710358 
	C313.179321,362.143097 312.286163,372.592407 311.413544,383.042023 
	C311.058716,387.291168 309.070679,389.043365 304.658936,389.108673 
	C292.418854,389.289795 292.075409,389.491669 290.468048,377.267700 
	C287.412109,354.027313 284.804718,330.727997 281.986542,307.456146 
	C281.307068,301.845276 280.596985,296.236420 279.775421,290.645111 
	C279.294067,287.369049 280.647736,286.165436 283.835846,285.960938 
	C293.115051,285.365631 293.198212,285.747162 294.131866,295.235992 
	C296.005188,314.275085 298.341431,333.268524 300.480377,352.281525 
	C300.960419,356.548492 301.415039,360.818329 302.778717,365.147369 
	C302.954559,363.668182 303.162994,362.192017 303.301422,360.709290 
	C305.483398,337.336548 307.813232,313.975800 309.721191,290.580627 
	C310.198029,284.734039 313.906219,285.345459 317.675629,284.982239 
	C322.007690,284.564728 323.123840,287.097504 323.462524,290.679565 
	C325.623077,313.532166 327.809357,336.382355 330.017303,359.230438 
	C330.218567,361.312805 330.632019,363.374695 331.949219,365.405029 
	C332.695831,357.025024 333.403015,348.641266 334.198334,340.265900 
	C335.390411,327.712494 336.639374,315.164490 337.876892,302.615448 
	C338.089172,300.462830 338.303925,298.307434 338.621796,296.168823 
	C340.194580,285.587128 341.892792,284.459351 353.309448,286.722778 
	C352.422363,295.365723 351.599579,304.069580 350.621918,312.756012 
	C348.914154,327.928894 347.118134,343.091888 345.345398,358.257416 
	C344.282654,367.349091 343.095062,376.427673 342.168060,385.532959 
	C341.823944,388.913055 340.275635,390.276886 336.997498,390.016205 
	C335.838959,389.924072 334.666687,390.005524 333.500671,390.006348 
	C321.617706,390.014771 321.631866,390.013947 320.986786,378.017639 
	C320.880035,376.032623 320.587982,374.057587 320.309937,371.619293 
z"/>
<path fill="#F4AE85" opacity="1.000000" stroke="none" 
	d="
M132.291733,106.529442 
	C126.698341,132.919098 130.535065,157.206421 145.121536,179.656860 
	C146.786972,182.220184 147.967773,185.366074 148.439270,188.387573 
	C149.896515,197.726196 148.258713,206.857010 146.006836,216.115845 
	C95.297707,177.062210 92.829597,83.245514 146.325394,40.534317 
	C148.083267,54.020065 152.635834,66.421806 144.267059,79.350952 
	C139.027283,87.446014 136.263565,97.143799 132.291733,106.529442 
z"/>
<path fill="#F4AE85" opacity="1.000000" stroke="none" 
	d="
M299.570740,131.616272 
	C299.916290,112.394989 295.882141,94.735458 285.193207,79.100060 
	C281.387451,73.533150 279.654541,67.729973 280.230621,61.276184 
	C280.829529,54.566826 282.013947,47.909740 283.005066,40.778316 
	C332.371857,77.534546 338.072571,171.915909 283.366302,216.504181 
	C281.312439,203.867538 277.013214,191.561264 284.187195,179.950180 
	C293.333771,165.146484 298.898987,149.461853 299.570740,131.616272 
z"/>
<path fill="#F3AD85" opacity="1.000000" stroke="none" 
	d="
M226.782333,322.995911 
	C227.139816,342.941925 227.404037,362.394623 227.926437,381.840332 
	C228.047195,386.335541 226.693558,388.118347 221.996857,388.022217 
	C212.894333,387.835999 213.129868,387.988983 210.923203,379.248749 
	C205.395737,357.355438 199.629501,335.522369 193.067841,313.714691 
	C193.067841,319.515350 192.921082,325.320404 193.095520,331.115814 
	C193.606018,348.077393 194.224167,365.035919 194.847534,381.993896 
	C194.997482,386.073242 193.383575,388.186951 189.085022,388.316132 
	C182.969040,388.500000 181.611465,387.879242 181.452515,382.615997 
	C180.985062,367.138062 180.840530,351.650635 180.501602,336.168427 
	C180.177536,321.365631 179.854813,306.561676 179.341660,291.764801 
	C179.194351,287.517029 180.524872,285.732910 185.014648,285.928955 
	C198.552719,286.520050 196.660706,283.198669 200.121323,297.662720 
	C203.913849,313.514130 208.236755,329.238739 212.345261,345.014221 
	C212.579010,345.911835 212.964096,346.769989 214.209045,347.510437 
	C214.209045,345.269470 214.225494,343.028351 214.206390,340.787567 
	C214.064560,324.144897 213.965164,307.501587 213.730164,290.860229 
	C213.679001,287.237457 214.071152,284.769684 218.727707,284.891632 
	C223.014313,285.003876 226.817154,284.738403 226.757858,290.724915 
	C226.652954,301.315521 226.762924,311.908234 226.782333,322.995911 
z"/>
<path fill="#F4AE85" opacity="1.000000" stroke="none" 
	d="
M76.121826,322.999939 
	C76.474892,342.814148 76.811722,362.128662 77.191223,381.442291 
	C77.311455,387.560791 77.030769,387.899567 70.825905,387.932281 
	C62.464703,387.976379 62.676109,387.922394 60.657986,380.024872 
	C55.263309,358.913910 49.670834,337.853485 44.148300,316.775238 
	C44.002068,316.217102 43.756466,315.685028 42.450554,315.276062 
	C42.450554,316.845398 42.414261,318.415680 42.456051,319.983887 
	C42.997131,340.287842 43.533840,360.591919 44.108185,380.894958 
	C44.279408,386.947876 43.409340,388.087097 38.125645,388.285187 
	C32.048645,388.512970 31.086346,387.690979 30.959084,381.631073 
	C30.602375,364.645538 30.348558,347.657837 29.983976,330.672485 
	C29.701792,317.525940 29.390772,304.378937 28.924805,291.238068 
	C28.789425,287.420135 30.009012,285.819183 34.032486,285.939758 
	C48.915436,286.385742 46.097935,283.641052 49.632671,297.721802 
	C53.604240,313.542633 57.803387,329.306366 61.916912,345.091461 
	C62.201729,346.184387 62.597790,347.248322 63.660980,348.336334 
	C63.739235,346.842194 63.903111,345.346893 63.882679,343.854095 
	C63.641209,326.208282 63.445431,308.561218 63.056114,290.918488 
	C62.964989,286.788757 64.056244,284.777405 68.640633,284.890869 
	C72.837662,284.994781 76.256973,284.904816 76.150688,290.648865 
	C75.954308,301.262421 76.111946,311.882477 76.121826,322.999939 
z"/>
<path fill="#F3AD86" opacity="1.000000" stroke="none" 
	d="
M130.310272,365.416931 
	C131.731491,378.181244 124.214966,388.413818 112.500397,389.825470 
	C101.526169,391.147888 88.850281,386.313721 88.035728,370.647522 
	C87.625221,362.752258 88.016365,354.817139 87.977585,346.900360 
	C87.911880,333.484558 87.544510,320.065094 87.756577,306.654327 
	C88.045929,288.354858 102.357864,282.073761 117.269234,286.103302 
	C126.791931,288.676666 132.024017,299.604980 130.723602,310.212921 
	C130.597321,311.242920 128.961258,312.410339 127.773422,312.895416 
	C126.624947,313.364441 125.150078,313.045197 123.818474,313.052856 
	C117.274841,313.090515 117.274818,313.088226 116.856781,306.415619 
	C116.503944,300.783691 113.886398,297.922485 109.114075,297.952087 
	C104.549568,297.980408 102.013260,300.567719 101.922623,306.225006 
	C101.651138,323.169037 101.583565,340.116577 101.493683,357.063049 
	C101.470673,361.401520 101.460938,365.756927 101.805183,370.075867 
	C102.169685,374.648834 104.910210,376.837463 109.545319,376.627686 
	C114.093094,376.421875 115.780930,373.428955 116.571404,369.538086 
	C116.633949,369.230225 116.456078,368.881317 116.467842,368.554291 
	C116.781288,359.834930 118.664864,358.290680 127.382401,360.486298 
	C128.681366,360.813507 129.394821,363.465424 130.310272,365.416931 
z"/>
<path fill="#F3AD85" opacity="1.000000" stroke="none" 
	d="
M388.671204,365.622070 
	C383.146667,355.529266 377.658234,345.863586 372.297760,336.127411 
	C368.458344,329.153931 363.972961,322.386261 361.254150,314.983795 
	C357.918579,305.902008 359.022614,296.878510 366.667847,289.740509 
	C372.482391,284.311737 384.587341,283.227539 392.060944,287.388062 
	C399.136047,291.326752 403.690002,301.322388 401.814728,309.355011 
	C401.569214,310.406616 400.067230,311.369965 398.929413,311.937683 
	C398.140839,312.331238 396.976746,311.929077 395.982971,311.961365 
	C388.734589,312.196930 388.662750,312.207275 388.264984,305.103607 
	C388.035675,301.007660 386.136444,298.546387 382.042297,297.974518 
	C377.635681,297.359039 373.692230,298.978058 373.523773,303.448303 
	C373.351593,308.018066 374.182892,313.173920 376.292999,317.164795 
	C380.401550,324.935333 385.952911,331.927582 390.446655,339.514618 
	C394.164612,345.791870 397.475647,352.345245 400.495209,358.990662 
	C403.244476,365.041199 403.170044,371.860535 400.408112,377.503326 
	C397.115417,384.230560 392.167877,390.118225 383.182068,390.012756 
	C374.498871,389.910828 366.578400,388.074310 362.663300,379.582184 
	C360.567657,375.036621 360.048309,369.704285 359.210571,364.661713 
	C358.718597,361.700470 360.345917,359.938751 363.580231,360.048584 
	C365.411072,360.110748 367.246429,360.099609 369.078339,360.058289 
	C372.488647,359.981384 373.882019,361.806702 373.889648,365.017883 
	C373.892822,366.350555 373.873962,367.688751 373.983124,369.014709 
	C374.404663,374.134216 377.153107,376.840912 381.879089,376.858429 
	C386.384827,376.875122 388.648041,374.363525 388.889557,369.010651 
	C388.934357,368.017365 388.808960,367.016388 388.671204,365.622070 
z"/>
<path fill="#F4AE85" opacity="1.000000" stroke="none" 
	d="
M245.185226,285.996643 
	C253.432358,286.111420 261.212402,286.268127 268.993164,286.322723 
	C272.392975,286.346588 275.218658,287.014160 274.616058,291.270782 
	C274.134277,294.674103 276.160339,299.787506 269.158203,299.101776 
	C264.070740,298.603546 258.895294,299.004425 253.354340,299.004425 
	C253.354340,308.984619 253.354340,318.541809 253.354340,328.010254 
	C257.475525,328.010254 261.359863,328.076721 265.241028,327.994171 
	C270.630554,327.879639 270.176727,331.619324 270.264557,335.213562 
	C270.350494,338.728760 270.114136,341.564331 265.353760,341.223572 
	C261.558746,340.951904 257.728729,341.168732 253.548859,341.168732 
	C253.548859,352.392914 253.548859,363.269836 253.548859,374.996826 
	C259.429504,374.996826 264.862305,375.262726 270.257019,374.923737 
	C275.913910,374.568237 275.657288,378.051025 275.898041,381.971710 
	C276.162720,386.281891 274.687500,388.018188 270.313416,388.070312 
	C261.994690,388.169464 253.681473,388.677002 245.363937,388.954498 
	C241.994446,389.066895 239.527893,388.223450 239.580017,383.995514 
	C239.766373,368.884949 239.983612,353.770416 239.823410,338.661255 
	C239.680725,325.205017 239.045822,311.754089 238.647888,298.300262 
	C238.583939,296.138489 238.765106,293.961853 238.585556,291.812714 
	C238.202515,287.228088 240.246948,285.376099 245.185226,285.996643 
z"/>
<path fill="#F2AD86" opacity="1.000000" stroke="none" 
	d="
M164.768265,77.781326 
	C166.927628,75.767380 168.851532,74.018562 171.332123,71.763718 
	C173.900604,81.709579 174.901520,90.034081 169.169922,99.046097 
	C157.492325,117.407280 157.638107,136.941132 167.667587,156.068039 
	C174.033951,168.209076 174.887070,171.083694 171.599976,184.430130 
	C147.418854,170.879150 129.848679,115.686310 164.768265,77.781326 
z"/>
<path fill="#F3AD85" opacity="1.000000" stroke="none" 
	d="
M279.380188,156.350586 
	C274.049500,169.305939 266.581116,179.428253 258.095093,185.006287 
	C256.085846,176.378357 254.279648,168.255814 259.405457,159.966278 
	C272.600861,138.626587 272.432007,117.218849 258.702209,96.100006 
	C253.627655,88.294418 256.431122,80.448418 257.903992,72.323318 
	C278.376678,85.921051 292.207153,121.667534 279.380188,156.350586 
z"/>
<path fill="#F1AC86" opacity="1.000000" stroke="none" 
	d="
M190.410614,108.169609 
	C181.023453,120.507736 180.423965,134.866562 189.044128,146.918015 
	C192.615433,151.910919 191.943329,156.848312 190.408813,163.094803 
	C179.783646,155.422028 173.935135,145.588593 172.652298,133.178589 
	C170.997772,117.172958 176.992126,104.388687 190.095490,94.015823 
	C191.778687,99.056244 192.965240,103.354683 190.410614,108.169609 
z"/>
<path fill="#F2AD86" opacity="1.000000" stroke="none" 
	d="
M241.510834,95.654968 
	C265.382782,115.305191 259.645660,150.247498 239.268753,162.590775 
	C237.388779,156.966843 237.093109,151.839447 240.724655,146.569565 
	C248.770111,134.894470 248.552597,121.394287 240.218353,109.762955 
	C237.115494,105.432556 237.545288,101.036957 238.637726,96.453903 
	C238.760422,95.939148 240.337585,95.771072 241.510834,95.654968 
z"/>
<path fill="#F4AD85" opacity="1.000000" stroke="none" 
	d="
M229.560211,126.503510 
	C229.639481,134.780487 226.169449,140.335602 219.788345,142.648056 
	C214.197800,144.674026 207.329880,142.824310 203.408981,138.236633 
	C199.319427,133.451584 198.634262,126.450768 201.919098,120.974846 
	C205.267853,115.392349 210.388870,113.204025 216.759857,113.862732 
	C223.240860,114.532814 227.403976,118.587257 229.560211,126.503510 
z"/>
<path fill="#F5AE85" opacity="1.000000" stroke="none" 
	d="
M147.163940,340.000397 
	C143.729782,339.204437 139.496185,341.895386 138.184250,336.619843 
	C136.054489,328.055634 136.924179,326.279419 145.594330,326.736267 
	C152.214722,327.085114 158.870468,326.928436 165.505188,326.772034 
	C169.006607,326.689453 170.097794,328.152222 170.105484,331.520844 
	C170.124786,339.966827 170.214584,339.998810 161.560760,340.003204 
	C156.920776,340.005554 152.280807,340.000702 147.163940,340.000397 
z"/>
</svg>